<svg xmlns="http://www.w3.org/2000/svg" width="192" height="192" viewBox="0 0 192 192">
  <rect width="192" height="192" rx="28" fill="#49AF50"/>
  <g transform="translate(32,32)" fill="#99FF00">
    <path d="M64 16c4 0 6 3 4 6l-4 8 10 6 8-3c3-1 6 0 6 4v12l-8 4 4 10 10 4c3 1 3 5 1 7l-8 8 4 10c1 3-1 6-4 6h-12l-4-8-10 6 1 9c0 3-3 5-6 5h-12c-3 0-6-2-6-5l1-9-10-6-4 8H36c-3 0-5-3-4-6l4-10-8-8c-2-2-2-6 1-7l10-4 4-10-8-4V46c0-4 3-5 6-4l8 3 10-6-4-8c-2-3 0-6 4-6h12z" />
  </g>
  <text x="96" y="172" text-anchor="middle" font-family="Arial, Helvetica, sans-serif" font-weight="700" font-size="18" fill="#fff">FPNO</text>
</svg>
