<svg xmlns="http://www.w3.org/2000/svg" width="512" height="512" viewBox="0 0 512 512">
  <rect width="512" height="512" rx="72" fill="#49AF50"/>
  <g transform="translate(110,110)" fill="#99FF00">
    <path d="M208 48c12 0 18 9 12 18l-12 24 30 18 24-9c9-3 18 0 18 12v36l-24 12 12 30 30 12c9 3 9 18 3 24l-24 24 12 30c3 9-3 18-12 18h-36l-12-24-30 18 3 27c0 9-9 15-18 15h-36c-9 0-18-6-18-15l3-27-30-18-12 24H88c-9 0-15-9-12-18l12-30-24-24c-6-6-6-18 3-21l30-12 12-30-24-12V114c0-12 9-15 18-12l24 9 30-18-12-24c-6-9 0-18 12-18h36z"/>
  </g>
  <text x="256" y="468" text-anchor="middle" font-family="Arial, Helvetica, sans-serif" font-weight="800" font-size="40" fill="#fff">FPNO</text>
</svg>
